<svg width="25" height="25" viewBox="0 0 25 25" fill="none" xmlns="http://www.w3.org/2000/svg">
<path fill-rule="evenodd" clip-rule="evenodd" d="M7.36416 9.96276L5.68427 11.6426L11.0843 17.0426L23.0843 5.04265L21.4044 3.36276L11.0843 13.6225L7.36416 9.96276ZM21.8843 12.2426C21.8843 17.5225 17.5641 21.8426 12.2843 21.8426C7.00444 21.8426 2.68427 17.5225 2.68427 12.2426C2.68427 6.96276 7.00439 2.64265 12.2843 2.64265C13.1843 2.64265 14.0843 2.76276 14.9245 3.0027L16.7843 1.14265C15.4044 0.542645 13.9044 0.242645 12.2843 0.242645C5.68427 0.242645 0.284271 5.64265 0.284271 12.2426C0.284271 18.8426 5.68427 24.2426 12.2843 24.2426C18.8843 24.2426 24.2843 18.8426 24.2843 12.2426H21.8843Z" fill="#2196F3"/>
</svg>
