<svg width="24" height="19" viewBox="0 0 24 19" fill="none" xmlns="http://www.w3.org/2000/svg">
<path fill-rule="evenodd" clip-rule="evenodd" d="M16.6771 9.51071L12.1657 12.9423C12.1016 12.937 12.0374 12.9316 11.9733 12.9316C11.0272 12.9316 10.2628 13.696 10.2628 14.6421C10.2628 15.5882 11.0272 16.3526 11.9733 16.3526C12.9194 16.3526 13.6837 15.5882 13.6837 14.6421C13.6837 14.578 13.6784 14.5138 13.673 14.4497L17.1047 9.93833L16.6771 9.51071Z" fill="#651FFF"/>
<path fill-rule="evenodd" clip-rule="evenodd" d="M11.9733 0.958374C5.36125 0.958374 0 6.31962 0 12.9316C0 14.7704 0.416927 16.5076 1.15457 18.0631H3.08419C2.26102 16.6412 1.79065 15.0377 1.72116 13.3593H3.42094V12.504H1.72116C1.7853 10.9646 2.18619 9.48399 2.88641 8.15303L4.35635 9.00292L4.78396 8.25993L3.31403 7.41539C3.70958 6.79534 4.17996 6.20737 4.71448 5.67285C5.25969 5.13298 5.85301 4.65726 6.48374 4.25637L7.32829 5.71561L8.07127 5.288L7.22673 3.82875C8.55234 3.13388 10.0169 2.74367 11.5457 2.67953V4.37931H12.4009V2.67953C13.9296 2.74367 15.3942 3.13922 16.7198 3.82875L15.8806 5.288L16.6236 5.71561L17.4682 4.25637C18.0989 4.65726 18.6922 5.13298 19.2374 5.67285C19.7719 6.20737 20.237 6.79 20.6379 7.41539L19.1733 8.25993L19.6009 9.00292L21.0708 8.15303C21.771 9.48399 22.1719 10.9646 22.2361 12.504H20.5256V13.3593H22.2254C22.1559 15.0377 21.6855 16.6412 20.8624 18.0631H22.792C23.5296 16.5076 23.9465 14.7704 23.9465 12.9316C23.9465 6.31962 18.5853 0.958374 11.9733 0.958374Z" fill="#651FFF"/>
</svg>
